<svg width="264.000000" height="252.195557" viewBox="0 0 264 252.196" fill="none" xmlns="http://www.w3.org/2000/svg" xmlns:xlink="http://www.w3.org/1999/xlink">
	<desc>
			Created with Pixso.
	</desc>
	<rect width="264.000000" height="252.195557" fill="#FFFFFF"/>
	<g filter="url(#filter_2_1_dd)">
		<path d="M18.5453 24L223 24C230.18 24 236 29.8203 236 37L236 231.184C236 240.276 226.905 246.56 218.401 243.343L125.485 208.196C122.59 207.102 119.4 207.075 116.488 208.122L25.0772 240.985C14.8857 244.649 4.94513 234.974 8.33083 224.687L37.5944 135.771C38.505 133.004 38.46 130.012 37.4666 127.273L6.32472 41.4335C3.24942 32.9567 9.52792 24 18.5453 24Z" fill-rule="evenodd" fill="#0063FF"/>
	</g>
	<g filter="url(#filter_2_2_dd)">
		<path d="M48.7627 18L233 18C240.18 18 246 23.8203 246 31L246 199.403C246 208.435 237.017 214.715 228.535 211.612L145.1 181.097C142.284 180.067 139.199 180.042 136.366 181.027L55.157 209.255C44.9298 212.81 35.0931 203.037 38.582 192.787L64.1965 117.535C65.1654 114.688 65.1176 111.594 64.0613 108.779L36.5913 35.5669C33.4023 27.0677 39.685 18 48.7627 18Z" fill-rule="evenodd" fill="#000000"/>
	</g>
	<defs>
		<filter id="filter_2_1_dd" x="1.534119" y="24.000000" width="238.465881" height="228.195557" filterUnits="userSpaceOnUse" color-interpolation-filters="sRGB">
			<feFlood flood-opacity="0" result="BackgroundImageFix"/>
			<feColorMatrix in="SourceAlpha" type="matrix" values="0 0 0 0 0 0 0 0 0 0 0 0 0 0 0 0 0 0 127 0"/>
			<feOffset dx="0" dy="4"/>
			<feGaussianBlur stdDeviation="1.33333"/>
			<feColorMatrix type="matrix" values="0 0 0 0 0 0 0 0 0 0 0 0 0 0 0 0 0 0 0.25 0"/>
			<feBlend mode="normal" in2="BackgroundImageFix" result="effect_dropShadow_1"/>

			<feColorMatrix in="SourceAlpha" type="matrix" values="0 0 0 0 0 0 0 0 0 0 0 0 0 0 0 0 0 0 127 0" result="hardAlpha"/>
			<feOffset dx="0" dy="0"/>
			<feGaussianBlur stdDeviation="16.6667"/>
			<feComposite in2="hardAlpha" operator="arithmetic" k2="-1" k3="1"/>
			<feColorMatrix type="matrix" values="0 0 0 0 0 0 0 0 0 0 0 0 0 0 0 0 0 0 0.25 0"/>
			<feBlend mode="normal" in2="shape" result="effect_innerShadow_2"/>
		</filter>
		<filter id="filter_2_2_dd" x="13.750946" y="0.000000" width="250.249054" height="234.414551" filterUnits="userSpaceOnUse" color-interpolation-filters="sRGB">
			<feFlood flood-opacity="0" result="BackgroundImageFix"/>
			<feColorMatrix in="SourceAlpha" type="matrix" values="0 0 0 0 0 0 0 0 0 0 0 0 0 0 0 0 0 0 127 0"/>
			<feOffset dx="-2" dy="2"/>
			<feGaussianBlur stdDeviation="6.66667"/>
			<feColorMatrix type="matrix" values="0 0 0 0 0 0 0 0 0 0 0 0 0 0 0 0 0 0 0.5 0"/>
			<feBlend mode="normal" in2="BackgroundImageFix" result="effect_dropShadow_1"/>
			<feBlend mode="normal" in="SourceGraphic" in2="effect_dropShadow_1" result="shape"/>
		</filter>
	</defs>
</svg>
